HIERARCHY
ROOT Hips
{
	OFFSET 0.000000 0.000000 0.000000 
	CHANNELS 6 Xposition Yposition Zposition Zrotation Yrotation Xrotation
	JOINT LeftUpLeg
	{
		OFFSET 1.363060 -1.794630 0.839290 
		CHANNELS 3 Zrotation Yrotation Xrotation
		JOINT LeftLeg
		{
			OFFSET 2.448110 -6.726130 0.000000 
			CHANNELS 3 Zrotation Yrotation Xrotation
			JOINT LeftFoot
			{
				OFFSET 2.562200 -7.039590 0.000000 
				CHANNELS 3 Zrotation Yrotation Xrotation
				JOINT LeftToeBase
				{
					OFFSET 0.157640 -0.433110 2.322550 
					CHANNELS 3 Zrotation Yrotation Xrotation
					End Site
					{
						OFFSET 0.000000 0.000000 0.000000 
					}
				}
			}
		}
	}
	JOINT RightUpLeg
	{
		OFFSET -1.305520 -1.794630 0.839290 
		CHANNELS 3 Zrotation Yrotation Xrotation
		JOINT RightLeg
		{
			OFFSET -2.542530 -6.985550 0.000000 
			CHANNELS 3 Zrotation Yrotation Xrotation
			JOINT RightFoot
			{
				OFFSET -2.568260 -7.056230 0.000000 
				CHANNELS 3 Zrotation Yrotation Xrotation
				JOINT RightToeBase
				{
					OFFSET -0.164730 -0.452590 2.363150 
					CHANNELS 3 Zrotation Yrotation Xrotation
					End Site
					{
						OFFSET 0.000000 0.000000 0.000000 
					}
				}
			}
		}
	}
	JOINT Spine
	{
		OFFSET 0.028270 2.035590 -0.193380 
		CHANNELS 3 Zrotation Yrotation Xrotation
		JOINT Spine1
		{
			OFFSET 0.056720 2.048850 -0.042750 
			CHANNELS 3 Zrotation Yrotation Xrotation
			JOINT Neck1
			{
				OFFSET -0.054170 1.746240 0.172020 
				CHANNELS 3 Zrotation Yrotation Xrotation
				JOINT Head
				{
					OFFSET 0.104070 1.761360 -0.123970 
					CHANNELS 3 Zrotation Yrotation Xrotation
					End Site
					{
						OFFSET 0.000000 0.000000 0.000000 
					}
				}
			}
			JOINT LeftArm
			{
				OFFSET 3.362410 1.200890 -0.311210 
				CHANNELS 3 Zrotation Yrotation Xrotation
				JOINT LeftForeArm
				{
					OFFSET 4.983000 -0.000000 -0.000000 
					CHANNELS 3 Zrotation Yrotation Xrotation
					JOINT LeftHand
					{
						OFFSET 3.483560 -0.000000 -0.000000 
						CHANNELS 3 Zrotation Yrotation Xrotation
						JOINT LeftHandIndex1
						{
							OFFSET 0.715260 -0.000000 -0.000000 
							CHANNELS 3 Zrotation Yrotation Xrotation
							End Site
							{
								OFFSET 0.000000 0.000000 0.000000 
							}
						}
					}
				}
			}
			JOINT RightArm
			{
				OFFSET -3.136600 1.374050 -0.404650 
				CHANNELS 3 Zrotation Yrotation Xrotation
				JOINT RightForeArm
				{
					OFFSET -5.241900 -0.000000 -0.000000 
					CHANNELS 3 Zrotation Yrotation Xrotation
					JOINT RightHand
					{
						OFFSET -3.444170 -0.000000 -0.000000 
						CHANNELS 3 Zrotation Yrotation Xrotation
						JOINT RightHandIndex1
						{
							OFFSET -0.622530 -0.000000 -0.000000 
							CHANNELS 3 Zrotation Yrotation Xrotation
							End Site
							{
								OFFSET 0.000000 0.000000 0.000000 
							}
						}
					}
				}
			}
		}
	}
}
MOTION
Frames: 18
Frame Time: 0.041667
-0.553412 18.558744 9.105025 -5.016927 -0.921326 12.701567 -16.267273 -28.879204 7.633607 -3.232392 -0.431389 1.575494 -11.062847 35.328677 -13.812356 0.030100 -1.119700 -3.078300 21.728467 22.959450 -1.431022 3.144550 -2.475180 8.410287 6.485333 -20.491134 -3.355539 -0.001400 -0.238700 0.655900 -9.168592 7.811415 -16.776905 -9.900686 2.761910 -18.239445 2.298167 -8.503856 21.860889 -0.766200 -3.858000 6.878100 -39.529611 15.067040 39.514404 147.121516 -40.639499 -109.237920 -0.450499 -0.488112 -30.999895 -7.125000 0.000000 0.000000 4.969473 32.663777 6.706539 -136.562809 50.836021 -101.589033 -0.568877 1.088180 -12.242097 7.125000 0.000000 0.000000 
-0.591140 18.588380 9.084007 -5.221838 -0.432670 12.958450 -15.348048 -29.284703 7.084659 -3.204426 -0.396492 1.470987 -11.139171 35.475016 -13.455367 0.034300 -1.195300 -3.286400 22.316633 23.191463 -1.352518 3.181001 -2.372300 8.178249 6.645937 -20.954556 -3.765011 -0.004400 -0.430700 1.183300 -11.611948 8.228245 -16.566048 -10.231516 3.095089 -18.473682 2.964218 -9.077566 22.006591 -0.657100 -4.092100 7.005300 -37.847957 15.978403 37.487909 147.161070 -40.621084 -109.297413 -0.420821 -0.503110 -31.796334 -7.125000 0.000000 0.000000 2.759360 34.033191 4.436852 -125.157660 56.684208 -93.234018 -0.851572 1.310988 -12.647779 7.125000 0.000000 0.000000 
-0.626661 18.615704 9.067928 -5.326166 -0.130554 13.285182 -14.631892 -29.533189 6.550302 -3.185406 -0.402717 1.291414 -11.220590 35.654620 -13.104771 0.039400 -1.281100 -3.522600 22.635408 23.350958 -1.392616 3.216163 -2.258423 7.881321 6.745278 -21.254446 -3.923276 -0.009100 -0.616800 1.695000 -13.426958 8.685236 -16.634567 -10.501514 3.443455 -18.532233 3.284748 -9.518282 22.366527 -0.607000 -4.286200 7.163100 -36.658542 17.099725 35.634874 147.188065 -40.619976 -109.337264 -0.410611 -0.503611 -31.759840 -7.125000 0.000000 0.000000 0.560384 35.765139 2.856337 -107.042925 61.519856 -79.890963 -1.219903 1.285765 -14.196933 7.125000 0.000000 0.000000 
-0.659765 18.637773 9.055632 -5.399114 -0.062237 13.440952 -14.181871 -29.852113 6.314987 -3.180734 -0.421797 1.153830 -11.324329 35.904845 -13.217269 0.035100 -1.208600 -3.323100 22.883031 23.548826 -1.291400 3.250650 -2.114958 7.539861 6.811461 -21.449528 -3.984242 -0.013200 -0.740500 2.035000 -14.722719 9.416706 -15.937421 -10.834140 3.851722 -18.349885 3.917136 -10.093956 23.102777 -0.474700 -4.525700 7.477600 -35.945452 17.714628 34.157632 147.128844 -40.595152 -109.342889 -0.415907 -0.513808 -31.317420 -7.125000 0.000000 0.000000 -3.034128 37.990967 2.891722 -80.112511 60.319233 -59.044481 -1.560403 1.170411 -13.833257 7.125000 0.000000 0.000000 
-0.689400 18.651855 9.048066 -5.493118 -0.093815 13.620732 -14.003191 -30.227385 6.422810 -3.194112 -0.460145 1.021919 -11.445741 36.228023 -13.781798 0.023400 -0.987400 -2.714200 23.095527 23.637923 -1.186472 3.280593 -1.989241 7.194373 6.810543 -21.494789 -3.882425 -0.011500 -0.691600 1.900600 -15.293705 9.489930 -16.594099 -10.709655 4.086238 -17.977638 3.784233 -9.924138 23.880824 -0.527300 -4.414500 7.645300 -35.473591 19.781202 32.443630 147.393497 -40.417439 -109.498778 -0.421611 -0.510920 -31.715571 -7.125000 0.000000 0.000000 -5.646557 41.982158 3.577840 -54.095124 53.854076 -35.198467 -1.534886 1.564450 -11.712908 7.125000 0.000000 0.000000 
-0.714307 18.659737 9.034404 -5.525062 -0.321531 13.574895 -13.868833 -30.346819 6.590110 -3.204632 -0.487283 0.952492 -11.539425 36.476590 -14.309883 0.013200 -0.741700 -2.038400 23.313437 23.623075 -1.047348 3.293706 -1.898323 6.982410 6.747872 -21.346374 -3.647110 -0.011000 -0.677100 1.860600 -16.475864 9.874597 -16.269404 -10.837546 4.402793 -18.040560 3.791109 -10.073341 24.929911 -0.608600 -4.429700 7.898700 -34.868258 21.039212 31.382380 147.631051 -40.221367 -109.647033 -0.411547 -0.528204 -33.193717 -7.125000 0.000000 0.000000 -7.373174 45.370203 2.733455 -32.866851 44.198633 -17.282214 -1.550183 1.933334 -7.453054 7.125000 0.000000 0.000000 
-0.741841 18.666358 9.005819 -5.739144 -0.576899 13.388447 -13.367386 -30.229623 6.527308 -3.195959 -0.454685 1.020825 -11.595969 36.588925 -14.576492 0.006900 -0.536100 -1.473100 23.810901 23.744381 -0.878638 3.287932 -1.888280 7.001790 6.676496 -21.173854 -3.569125 -0.011500 -0.692900 1.904100 -17.713355 10.498646 -15.542711 -11.324278 4.718267 -18.369376 4.038133 -10.471712 25.985048 -0.679900 -4.535000 8.182000 -33.989243 21.387632 30.856668 147.695849 -40.135326 -109.720854 -0.380275 -0.560186 -34.796846 -7.125000 0.000000 0.000000 -8.627522 47.685872 1.996066 -18.988959 32.626110 -7.391230 -1.420131 2.303451 -2.759103 7.125000 0.000000 0.000000 
-0.775576 18.672453 8.989320 -6.114850 -0.518669 13.074169 -12.464928 -29.577702 6.127575 -3.150674 -0.379220 1.150886 -11.523414 36.307378 -13.788485 0.015500 -0.802900 -2.206700 24.676434 23.614449 -0.552083 3.285159 -1.848518 7.010512 6.597231 -20.984187 -3.640131 -0.011000 -0.678200 1.863700 -19.044154 11.225604 -14.037195 -11.829364 4.984541 -18.744038 4.927749 -11.189228 26.688179 -0.614100 -4.743100 8.444500 -32.937631 20.771653 30.693201 147.491371 -40.239786 -109.655266 -0.348384 -0.587977 -35.086230 -7.125000 0.000000 0.000000 -8.032776 48.063937 0.843974 -11.558668 23.245784 -3.099167 -1.026333 2.477972 6.777486 7.125000 0.000000 0.000000 
-0.810676 18.678444 8.993418 -6.434028 -0.069156 12.634578 -11.546793 -28.754948 5.674073 -3.085436 -0.299613 1.253458 -11.350804 35.772110 -12.279068 0.052800 -1.483200 -4.079400 25.634181 23.017330 -0.095497 3.293307 -1.733736 6.889925 6.531468 -20.820519 -3.706211 -0.009700 -0.635800 1.747100 -20.735230 11.995174 -11.659216 -12.008845 5.237063 -19.172794 6.418825 -12.270912 26.639762 -0.405200 -5.097400 8.567800 -32.064281 19.531724 30.876821 147.231584 -40.348821 -109.539978 -0.342553 -0.599223 -33.650449 -7.125000 0.000000 0.000000 -4.389627 46.668530 -4.209298 -8.891163 18.856535 -1.924075 -0.584365 2.395659 23.748189 7.125000 0.000000 0.000000 
-0.847458 18.682963 9.001195 -6.461038 0.577245 12.180167 -11.196217 -28.662503 5.630680 -3.051028 -0.257683 1.291045 -11.243399 35.467889 -11.435113 0.091100 -1.946700 -5.358300 26.144667 22.336514 0.261822 3.299335 -1.648808 6.830356 6.536624 -20.818697 -3.847150 -0.009200 -0.617900 1.698000 -21.758904 12.330802 -9.509388 -11.477136 5.363753 -19.649723 7.766528 -13.078120 25.999379 -0.173900 -5.363600 8.513200 -31.833298 18.933937 30.783089 147.247454 -40.245377 -109.562954 -0.353892 -0.590709 -32.213628 -7.125000 0.000000 0.000000 -0.877138 44.670453 -1.953452 -9.724016 19.443421 -2.215381 -0.491189 2.406291 21.479602 7.125000 0.000000 0.000000 
-0.883505 18.681596 9.013175 -6.237605 1.581000 11.944011 -11.366806 -29.236836 5.742889 -3.041810 -0.220818 1.346135 -11.161215 35.264894 -11.094067 0.118000 -2.214400 -6.098500 26.051464 21.572358 0.259975 3.306113 -1.628317 6.860468 6.603476 -20.964804 -4.188462 -0.012500 -0.721700 1.983400 -21.363682 11.962387 -8.763174 -10.256519 5.335671 -19.853481 8.236500 -13.284299 25.349856 -0.057000 -5.449200 8.331600 -32.406954 19.538780 30.478508 147.599208 -39.942811 -109.754038 -0.370050 -0.568497 -32.219034 -7.125000 0.000000 0.000000 2.087539 41.581292 9.338485 -14.494683 25.164979 -4.280103 -0.770703 2.598491 2.095559 7.125000 0.000000 0.000000 
-0.912405 18.670457 9.031777 -6.157738 3.183324 11.997957 -11.410314 -29.978162 5.523840 -3.017981 -0.139229 1.492671 -10.983815 34.808046 -10.392986 0.165700 -2.622600 -7.229800 25.842767 20.611470 -0.062145 3.322838 -1.631669 6.863931 6.733845 -21.318355 -4.773685 -0.017700 -0.859200 2.361500 -19.657300 11.428088 -9.653296 -9.252274 5.278314 -19.499050 8.122727 -13.364514 25.023691 0.008400 -5.559800 8.129300 -33.592531 20.691663 30.714756 148.188498 -39.467107 -110.057431 -0.392611 -0.544068 -32.948462 -7.125000 0.000000 0.000000 3.815315 38.393484 18.076481 -20.441347 31.580796 -7.514998 -0.964171 2.685552 -8.046871 7.125000 0.000000 0.000000 
-0.933843 18.646916 9.054161 -6.570283 5.289164 12.026884 -10.868991 -30.699477 5.041704 -2.968160 -0.057455 1.622186 -10.724788 34.094024 -9.063833 0.246500 -3.194500 -8.820800 26.119341 19.709772 -0.251243 3.359175 -1.587623 6.730760 6.969469 -22.024616 -5.743902 -0.029200 -1.102400 3.030700 -16.550800 11.046285 -10.691491 -8.891223 5.040246 -18.912071 7.949091 -13.478935 25.359162 0.079900 -5.682300 8.163900 -35.129963 21.888783 30.772394 148.706353 -39.070740 -110.305991 -0.425455 -0.519526 -33.010800 -7.125000 0.000000 0.000000 4.651386 34.817357 24.063305 -27.412114 37.873557 -12.059573 -1.090726 2.645025 -7.931102 7.125000 0.000000 0.000000 
-0.950238 18.613602 9.083692 -7.244936 7.676230 12.004960 -9.917987 -31.447679 4.539641 -2.904836 -0.000014 1.618638 -10.406768 33.246116 -7.395915 0.351000 -3.806500 -10.532900 26.938892 19.043802 0.000215 3.429197 -1.425445 6.335720 7.306931 -23.086801 -7.200713 -0.061500 -1.599600 4.400300 -14.306182 10.580496 -12.189992 -8.849944 4.766260 -18.135962 7.990898 -13.827382 25.461288 0.149700 -5.891500 8.092500 -36.153151 22.672332 30.726693 148.908792 -38.928405 -110.390128 -0.455008 -0.501739 -32.133490 -7.125000 0.000000 0.000000 5.664858 30.550714 28.347027 -36.658978 44.112583 -18.939169 -1.147656 2.558549 -7.884621 7.125000 0.000000 0.000000 
-0.967157 18.579132 9.120474 -7.829829 10.201976 11.627691 -8.864530 -32.021174 3.989741 -2.825963 0.074260 1.653354 -9.922108 31.971218 -5.448693 0.488200 -4.480400 -12.432300 28.015615 18.596321 0.807911 3.524489 -1.146030 5.774604 7.750248 -24.479648 -9.151256 -0.118000 -2.214600 6.099000 -13.170677 10.010552 -11.841684 -8.724998 4.366534 -17.857362 8.671757 -14.424434 25.805450 0.312400 -6.138400 8.215400 -37.055039 22.776657 30.151117 148.847031 -38.952184 -110.349277 -0.482383 -0.494727 -31.073563 -7.125000 0.000000 0.000000 6.614715 26.118082 30.413028 -49.064024 49.858277 -29.441086 -1.331408 2.354283 -9.882437 7.125000 0.000000 0.000000 
-0.987440 18.549181 9.149794 -8.021603 12.718917 11.180992 -7.997686 -32.451943 3.106236 -2.733420 0.238220 1.919054 -9.272746 30.272470 -3.447305 0.649000 -5.153200 -14.346000 28.780856 18.388171 1.637747 3.621532 -0.894623 5.326646 8.264185 -26.086593 -11.344437 -0.190900 -2.813800 7.760900 -12.985835 9.321133 -10.558141 -8.379222 3.957475 -18.077925 9.581154 -15.080856 25.793071 0.505600 -6.397000 8.285700 -37.911988 22.458005 29.484445 148.613483 -39.101263 -110.225289 -0.498591 -0.500503 -30.926880 -7.125000 0.000000 0.000000 7.410041 21.484342 31.130876 -64.458919 54.472744 -43.791984 -1.570001 2.093914 -11.138792 7.125000 0.000000 0.000000 
-1.005201 18.521542 9.162510 -7.565208 15.024689 11.188356 -7.680169 -32.973887 1.826087 -2.644649 0.505463 2.424248 -8.605598 28.577319 -1.773820 0.802800 -5.718500 -15.969900 28.653470 18.431888 1.941963 3.712740 -0.750161 5.083215 8.749305 -27.578002 -13.498775 -0.305000 -3.550600 9.815700 -13.738241 8.482209 -10.156244 -7.718833 3.679525 -18.517113 10.467087 -15.672807 25.566561 0.713600 -6.634000 8.252700 -38.792689 22.259443 29.059699 148.411123 -39.260016 -110.107361 -0.504415 -0.510553 -31.978813 -7.125000 0.000000 0.000000 8.544598 16.549355 30.111232 -81.628274 58.419450 -60.350274 -1.902775 1.733356 -11.530279 7.125000 0.000000 0.000000 
-1.019493 18.510718 9.225250 -7.690425 18.047704 11.053372 -6.953101 -33.188721 0.556493 -2.550957 0.670259 2.737190 -7.714338 26.219386 0.329572 1.012800 -6.403000 -17.958200 29.275688 18.243323 2.692260 3.841560 -0.421317 4.425450 9.143414 -29.078717 -16.258037 -0.494800 -4.509800 12.515500 -12.776456 7.568570 -10.199331 -7.349686 3.261904 -18.365614 11.937582 -16.177210 25.869170 1.104800 -6.759300 8.378000 -39.716316 22.446931 28.681276 148.345673 -39.334456 -110.058084 -0.510867 -0.519345 -32.982511 -7.125000 0.000000 0.000000 9.912481 12.065241 28.306547 -99.951039 60.421416 -75.602154 -1.798993 1.522680 -11.246668 7.125000 0.000000 0.000000 
